<svg xmlns="http://www.w3.org/2000/svg" xmlns:xlink="http://www.w3.org/1999/xlink" width="109" height="116" viewBox="0 0 109 116">
  <defs>
    <clipPath id="clip-path">
      <path id="Path_701" data-name="Path 701" d="M4793.284,3956l-79.257,88.328,79.257-3.1Z" transform="translate(-4714.027 -3956)" fill="none" stroke="#707070" stroke-width="1"/>
    </clipPath>
  </defs>
  <g id="Electronics" transform="translate(-1686 -2197)">
    <g id="_005-responsive" data-name="005-responsive" transform="translate(1700.551 2217.834)">
      <path id="Path_488" data-name="Path 488" d="M75.465,51.747V22.62A6.627,6.627,0,0,0,68.845,16H10.592a6.627,6.627,0,0,0-6.62,6.62V42.479A3.977,3.977,0,0,0,0,46.451V86.169a3.977,3.977,0,0,0,3.972,3.972H33.1a3.977,3.977,0,0,0,3.972-3.972h11.1A3.971,3.971,0,0,0,52,81.153l-2.6-9.547H56.93V86.169A3.977,3.977,0,0,0,60.9,90.141H75.465a3.977,3.977,0,0,0,3.972-3.972V55.719A3.977,3.977,0,0,0,75.465,51.747ZM34.423,86.169A1.326,1.326,0,0,1,33.1,87.493H3.972a1.326,1.326,0,0,1-1.324-1.324V83.522H34.423Zm0-5.3H2.648V51.747H34.423Zm0-31.775H2.648V46.451a1.326,1.326,0,0,1,1.324-1.324H33.1a1.326,1.326,0,0,1,1.324,1.324ZM49.444,81.849a1.324,1.324,0,0,1-1.278,1.672h-11.1V80.874H49.178ZM37.071,78.226v-6.62h9.58l1.806,6.62ZM56.93,68.958H37.071V61.014H56.93Zm0-13.24v2.648H37.071V46.451A3.977,3.977,0,0,0,33.1,42.479H6.62V22.62a3.977,3.977,0,0,1,3.972-3.972H68.845a3.977,3.977,0,0,1,3.972,3.972V51.747H60.9A3.977,3.977,0,0,0,56.93,55.719ZM76.789,86.169a1.326,1.326,0,0,1-1.324,1.324H60.9a1.326,1.326,0,0,1-1.324-1.324V83.522H76.789Zm0-5.3H59.578V61.014H76.789Zm0-22.507H59.578V55.719A1.326,1.326,0,0,1,60.9,54.395H75.465a1.326,1.326,0,0,1,1.324,1.324Z" transform="translate(0 -16)"/>
      <rect id="Rectangle_55" data-name="Rectangle 55" width="7.49" height="2.648" transform="translate(7.007 54.669) rotate(-45)"/>
      <rect id="Rectangle_56" data-name="Rectangle 56" width="22.469" height="2.648" transform="translate(12.302 58.641) rotate(-45)"/>
      <rect id="Rectangle_57" data-name="Rectangle 57" width="11.234" height="2.648" transform="translate(14.95 46.727) rotate(-45)"/>
      <rect id="Rectangle_58" data-name="Rectangle 58" width="9.36" height="2.648" transform="translate(62.611 54.671) rotate(-45)"/>
      <rect id="Rectangle_59" data-name="Rectangle 59" width="9.36" height="2.648" transform="translate(65.258 59.972) rotate(-45)"/>
      <rect id="Rectangle_60" data-name="Rectangle 60" width="11.234" height="2.648" transform="translate(34.809 22.895) rotate(-45)"/>
      <rect id="Rectangle_61" data-name="Rectangle 61" width="11.234" height="2.648" transform="translate(46.725 20.247) rotate(-45)"/>
      <rect id="Rectangle_62" data-name="Rectangle 62" width="7.49" height="2.648" transform="translate(38.78 28.193) rotate(-45)"/>
      <rect id="Rectangle_63" data-name="Rectangle 63" width="7.508" height="2.648" transform="translate(45.393 12.32) rotate(-45)"/>
      <rect id="Rectangle_64" data-name="Rectangle 64" width="2.648" height="2.648" transform="translate(9.268 5.296)"/>
      <rect id="Rectangle_65" data-name="Rectangle 65" width="2.648" height="2.648" transform="translate(14.563 5.296)"/>
      <rect id="Rectangle_66" data-name="Rectangle 66" width="2.648" height="2.648" transform="translate(19.859 5.296)"/>
    </g>
    <g id="Mask_Group_33" data-name="Mask Group 33" transform="translate(1703.832 2214.926)" clip-path="url(#clip-path)">
      <g id="_005-responsive-2" data-name="005-responsive" transform="translate(-3.28 2.907)">
        <path id="Path_488-2" data-name="Path 488" d="M75.465,51.747V22.62A6.627,6.627,0,0,0,68.845,16H10.592a6.627,6.627,0,0,0-6.62,6.62V42.479A3.977,3.977,0,0,0,0,46.451V86.169a3.977,3.977,0,0,0,3.972,3.972H33.1a3.977,3.977,0,0,0,3.972-3.972h11.1A3.971,3.971,0,0,0,52,81.153l-2.6-9.547H56.93V86.169A3.977,3.977,0,0,0,60.9,90.141H75.465a3.977,3.977,0,0,0,3.972-3.972V55.719A3.977,3.977,0,0,0,75.465,51.747ZM34.423,86.169A1.326,1.326,0,0,1,33.1,87.493H3.972a1.326,1.326,0,0,1-1.324-1.324V83.522H34.423Zm0-5.3H2.648V51.747H34.423Zm0-31.775H2.648V46.451a1.326,1.326,0,0,1,1.324-1.324H33.1a1.326,1.326,0,0,1,1.324,1.324ZM49.444,81.849a1.324,1.324,0,0,1-1.278,1.672h-11.1V80.874H49.178ZM37.071,78.226v-6.62h9.58l1.806,6.62ZM56.93,68.958H37.071V61.014H56.93Zm0-13.24v2.648H37.071V46.451A3.977,3.977,0,0,0,33.1,42.479H6.62V22.62a3.977,3.977,0,0,1,3.972-3.972H68.845a3.977,3.977,0,0,1,3.972,3.972V51.747H60.9A3.977,3.977,0,0,0,56.93,55.719ZM76.789,86.169a1.326,1.326,0,0,1-1.324,1.324H60.9a1.326,1.326,0,0,1-1.324-1.324V83.522H76.789Zm0-5.3H59.578V61.014H76.789Zm0-22.507H59.578V55.719A1.326,1.326,0,0,1,60.9,54.395H75.465a1.326,1.326,0,0,1,1.324,1.324Z" transform="translate(0 -16)" fill="#83005b"/>
        <rect id="Rectangle_55-2" data-name="Rectangle 55" width="7.49" height="2.648" transform="translate(7.007 54.669) rotate(-45)" fill="#83005b"/>
        <rect id="Rectangle_56-2" data-name="Rectangle 56" width="22.469" height="2.648" transform="translate(12.302 58.641) rotate(-45)" fill="#83005b"/>
        <rect id="Rectangle_57-2" data-name="Rectangle 57" width="11.234" height="2.648" transform="translate(14.95 46.727) rotate(-45)" fill="#83005b"/>
        <rect id="Rectangle_58-2" data-name="Rectangle 58" width="9.36" height="2.648" transform="translate(62.611 54.671) rotate(-45)" fill="#83005b"/>
        <rect id="Rectangle_59-2" data-name="Rectangle 59" width="9.36" height="2.648" transform="translate(65.258 59.972) rotate(-45)" fill="#83005b"/>
        <rect id="Rectangle_60-2" data-name="Rectangle 60" width="11.234" height="2.648" transform="translate(34.809 22.895) rotate(-45)" fill="#83005b"/>
        <rect id="Rectangle_61-2" data-name="Rectangle 61" width="11.234" height="2.648" transform="translate(46.725 20.247) rotate(-45)" fill="#83005b"/>
        <rect id="Rectangle_62-2" data-name="Rectangle 62" width="7.49" height="2.648" transform="translate(38.78 28.193) rotate(-45)" fill="#83005b"/>
        <rect id="Rectangle_63-2" data-name="Rectangle 63" width="7.508" height="2.648" transform="translate(45.393 12.32) rotate(-45)" fill="#83005b"/>
        <rect id="Rectangle_64-2" data-name="Rectangle 64" width="2.648" height="2.648" transform="translate(9.268 5.296)" fill="#83005b"/>
        <rect id="Rectangle_65-2" data-name="Rectangle 65" width="2.648" height="2.648" transform="translate(14.563 5.296)" fill="#83005b"/>
        <rect id="Rectangle_66-2" data-name="Rectangle 66" width="2.648" height="2.648" transform="translate(19.859 5.296)" fill="#83005b"/>
      </g>
    </g>
    <rect id="Rectangle_258" data-name="Rectangle 258" width="109" height="116" transform="translate(1686 2197)" fill="none"/>
  </g>
</svg>
