<svg id="Group_14" data-name="Group 14" xmlns="http://www.w3.org/2000/svg" width="273.746" height="42.715" viewBox="0 0 273.746 42.715">
  <path id="Path_11" data-name="Path 11" d="M298.225,42.677c-1.153-.269-2.307-.423-3.422-.769a13.278,13.278,0,0,1-8.92-13.034,12.374,12.374,0,0,1,5.844-10.227l.346-.231c-.423-.577-.884-1.115-1.269-1.692A10.81,10.81,0,0,1,298.417.077,1.692,1.692,0,0,0,298.8,0h2.076a30.806,30.806,0,0,1,3.23.884,10.277,10.277,0,0,1,5.267,4.844,4.5,4.5,0,0,1,.192.423c-2.038,1.038-4.037,2.038-6.075,3.076a3.978,3.978,0,0,0-2.576-2.268,4,4,0,0,0-4.075,6.5l7.151,7.843c1.115,1.192,2.191,2.422,3.306,3.614a5.185,5.185,0,0,1,.346.423,10.789,10.789,0,0,1,4.691-6.536,10.309,10.309,0,0,1,5.652-1.615v6.767a4.468,4.468,0,0,0-.692.154,3.841,3.841,0,0,0-2.076,1.73,11.231,11.231,0,0,0-1.576,5.229,1.508,1.508,0,0,0,.461,1.307c2.538,2.768,5.075,5.575,7.613,8.343.115.115.231.269.384.461h-8.8a1.253,1.253,0,0,1-.692-.308q-1.269-1.326-2.538-2.768c-.269.231-.5.5-.769.73a14.751,14.751,0,0,1-8.42,3.806,1.635,1.635,0,0,0-.423.077C299.725,42.677,298.956,42.677,298.225,42.677Zm7.19-9.65c-.038-.038-.038-.077-.077-.115-2.73-3-5.46-6-8.189-8.958a.552.552,0,0,0-.538-.115,5.568,5.568,0,0,0-2.422,1.538,6.2,6.2,0,0,0,.923,9.035A7.565,7.565,0,0,0,305.415,33.026Z" transform="translate(-175.962)"/>
  <path id="Path_12" data-name="Path 12" d="M667.99,42.527h-8.458a.674.674,0,0,1-.731-.423c-2.345-4.229-4.5-8.535-6.5-12.918a.725.725,0,0,0-.884-.5c-1.192.154-2.422.231-3.691.346V42.489H640.5V2.311c.154,0,.346-.038.5-.038,3.345,0,6.69-.038,10.035,0a19.294,19.294,0,0,1,7.651,1.538A11.271,11.271,0,0,1,665.76,14.5a13.068,13.068,0,0,1-2.038,7.728,12.158,12.158,0,0,1-3.883,3.653,5.689,5.689,0,0,1-.5.308c.538,1.153,1.077,2.307,1.615,3.422a129.068,129.068,0,0,0,6.728,12.419c.077.115.192.269.269.384A.3.3,0,0,1,667.99,42.527Zm-20.223-20.8a27.529,27.529,0,0,0,5.344-.269,7.935,7.935,0,0,0,2.845-1.153,5.963,5.963,0,0,0,2.5-4.921,5.315,5.315,0,0,0-3.806-5.652,14.2,14.2,0,0,0-3.037-.615c-1.269-.115-2.537-.038-3.845-.038Z" transform="translate(-394.244 -1.388)"/>
  <path id="Path_13" data-name="Path 13" d="M387.7,2.373h.577c2.807,0,5.613-.038,8.42,0a21.238,21.238,0,0,1,7.113,1,10.994,10.994,0,0,1,6.805,13,8.9,8.9,0,0,1-2.268,3.845c-.192.192-.384.423-.615.654.384.231.769.423,1.115.654a10.259,10.259,0,0,1,4.806,8.8c.192,5.306-3.268,9.535-8.036,11.3a14.535,14.535,0,0,1-5.114.961c-4.152.038-8.343,0-12.5,0h-.269Q387.681,22.519,387.7,2.373Zm7.228,33.488c1.346,0,2.614.038,3.883,0a12.523,12.523,0,0,0,4.268-.654,4.133,4.133,0,0,0,3-3.076,9.253,9.253,0,0,0,.077-2.73,3.54,3.54,0,0,0-1.5-2.576,6.441,6.441,0,0,0-2.96-1.192,42.6,42.6,0,0,0-6.651-.231c-.038,0-.077.038-.115.077Zm0-17.186h3.46a5.219,5.219,0,0,0,1.115-.115,4.463,4.463,0,0,0,4.229-4.96,4.153,4.153,0,0,0-3.614-4.421,20.986,20.986,0,0,0-5.152-.269c-.038,0-.038.038-.077.077C394.928,12.215,394.928,15.406,394.928,18.674Z" transform="translate(-238.639 -1.45)"/>
  <path id="Path_14" data-name="Path 14" d="M573.463,42.493h-7.382c-.884,0-.884,0-1.23-.846-1.192-3.037-2.345-6.113-3.537-9.151-.154-.346-.308-.5-.692-.5H546.7a.569.569,0,0,0-.654.461c-1.23,3.191-2.5,6.382-3.691,9.612a.535.535,0,0,1-.654.423h-7.3a3.742,3.742,0,0,1,.231-.538q8.016-19.666,16.033-39.293a.632.632,0,0,1,.692-.461c1.576.038,3.153,0,4.767,0a.576.576,0,0,1,.615.384q8.3,19.781,16.648,39.524A.525.525,0,0,0,573.463,42.493ZM553.7,13.081c-1.615,4.075-3.23,8.074-4.806,12.111h9.612C556.892,21.155,555.315,17.156,553.7,13.081Z" transform="translate(-328.936 -1.354)"/>
  <path id="Path_15" data-name="Path 15" d="M472.367,9.228v9.535H488.9v6.69H472.367v10.5h17.417v6.728H465.1V2.5h24.645V9.228Z" transform="translate(-286.281 -1.539)"/>
  <path id="Path_16" data-name="Path 16" d="M74.693,2.4H82V27.276a12.248,12.248,0,0,0,.769,4.383,7.159,7.159,0,0,0,6.075,4.767,11.212,11.212,0,0,0,3.922-.115,6.963,6.963,0,0,0,5.575-5.575A15.867,15.867,0,0,0,98.8,26.93q.058-11.938.038-23.914V2.4h7.228c0,.154.038.346.038.5,0,8.3.038,16.609,0,24.914a15.433,15.433,0,0,1-4.921,11.726,14.4,14.4,0,0,1-7.766,3.614,17.577,17.577,0,0,1-9.343-.923,14.091,14.091,0,0,1-8.8-10.612,19.314,19.314,0,0,1-.461-4.46c-.154-8.074-.115-16.11-.115-24.145Z" transform="translate(-45.973 -1.477)"/>
  <path id="Path_17" data-name="Path 17" d="M7.151,32.427V42.461H0V2.284c.192,0,.346-.038.538-.038,3.076,0,6.113-.077,9.189,0C15.341,2.4,19.8,4.667,22.646,9.627A15.7,15.7,0,0,1,18.3,29.889a14.111,14.111,0,0,1-8.074,2.5C9.189,32.465,8.189,32.427,7.151,32.427Zm0-6.844c1.23,0,2.384.038,3.537,0a6.469,6.469,0,0,0,3.23-1.077,7.953,7.953,0,0,0,3.537-6.728c.154-5.46-3.691-9.458-10.342-8.612C7.151,14.587,7.151,20.046,7.151,25.583Z" transform="translate(0 -1.361)"/>
  <path id="Path_18" data-name="Path 18" d="M176.228,35.7H188.57v6.882H169V2.4h7.19C176.228,13.511,176.228,24.584,176.228,35.7Z" transform="translate(-104.024 -1.477)"/>
  <path id="Path_19" data-name="Path 19" d="M234.99,35.7h12.342v6.882H227.8V2.4h7.19Z" transform="translate(-140.217 -1.477)"/>
</svg>
