<svg xmlns="http://www.w3.org/2000/svg" xmlns:xlink="http://www.w3.org/1999/xlink" width="109" height="116" viewBox="0 0 109 116">
  <defs>
    <clipPath id="clip-path">
      <path id="Path_698" data-name="Path 698" d="M4803.088,3956l-89.061,99.254,89.061-3.487Z" transform="translate(-4340 -1754)" fill="none" stroke="#707070" stroke-width="1"/>
    </clipPath>
  </defs>
  <g id="Men" transform="translate(-391 -2189)">
    <g id="Men-2" data-name="Men">
      <path id="Path_489" data-name="Path 489" d="M106.893,37.381l-3.7-22.175a8.929,8.929,0,0,0-6.82-7.254L82.23,4.687,79.525.63a1.414,1.414,0,0,0-.99-.617A1.372,1.372,0,0,0,78.349,0V0H54.216a1.374,1.374,0,0,0-.186.011,1.414,1.414,0,0,0-.99.617L50.334,4.687,36.187,7.952a8.928,8.928,0,0,0-6.82,7.254l-3.7,22.175a1.414,1.414,0,0,0,.87,1.545L40.735,44.6V88.9a1.414,1.414,0,0,0,1.414,1.414H90.415A1.414,1.414,0,0,0,91.829,88.9V44.6l14.194-5.678A1.415,1.415,0,0,0,106.893,37.381ZM79.682,5.964l-6.16,9.855a.094.094,0,0,1-.139.024l-4.9-3.919L78.066,3.54Zm-5.1-3.136-8.3,7.265-8.3-7.265Zm-6.7,12.237v13.5a.094.094,0,0,1-.094.094H64.774a.094.094,0,0,1-.094-.094v-13.5l1.6-1.282ZM54.5,3.54l9.581,8.384-4.9,3.919a.09.09,0,0,1-.075.019.088.088,0,0,1-.064-.043l-6.16-9.855ZM40.735,41.558,28.648,36.723l.467-2.8,11.62,4.648ZM89,87.481H43.563V84.276H89v3.205Zm1.414-61.84A1.414,1.414,0,0,0,89,27.055V81.448H43.563V27.055a1.414,1.414,0,1,0-2.828,0v8.47L29.591,31.067l2.566-15.4a6.11,6.11,0,0,1,4.666-4.963L50.534,7.543l6.109,9.775a2.923,2.923,0,0,0,4.3.733l.9-.723V28.564a2.926,2.926,0,0,0,2.922,2.922H67.79a2.926,2.926,0,0,0,2.922-2.922V17.328l.9.723a2.922,2.922,0,0,0,4.3-.733l6.109-9.774,13.711,3.164a6.109,6.109,0,0,1,4.666,4.963l2.566,15.4L91.828,35.525v-8.47A1.413,1.413,0,0,0,90.415,25.641Zm1.414,15.917V38.571l11.62-4.648.467,2.8Z" transform="translate(378.813 2202.267)"/>
    </g>
    <g id="Group_30" data-name="Group 30" transform="translate(27)" clip-path="url(#clip-path)">
      <path id="Path_697" data-name="Path 697" d="M106.893,37.381l-3.7-22.175a8.929,8.929,0,0,0-6.82-7.254L82.23,4.687,79.525.63a1.414,1.414,0,0,0-.99-.617A1.372,1.372,0,0,0,78.349,0V0H54.216a1.374,1.374,0,0,0-.186.011,1.414,1.414,0,0,0-.99.617L50.334,4.687,36.187,7.952a8.928,8.928,0,0,0-6.82,7.254l-3.7,22.175a1.414,1.414,0,0,0,.87,1.545L40.735,44.6V88.9a1.414,1.414,0,0,0,1.414,1.414H90.415A1.414,1.414,0,0,0,91.829,88.9V44.6l14.194-5.678A1.415,1.415,0,0,0,106.893,37.381ZM79.682,5.964l-6.16,9.855a.094.094,0,0,1-.139.024l-4.9-3.919L78.066,3.54Zm-5.1-3.136-8.3,7.265-8.3-7.265Zm-6.7,12.237v13.5a.094.094,0,0,1-.094.094H64.774a.094.094,0,0,1-.094-.094v-13.5l1.6-1.282ZM54.5,3.54l9.581,8.384-4.9,3.919a.09.09,0,0,1-.075.019.088.088,0,0,1-.064-.043l-6.16-9.855ZM40.735,41.558,28.648,36.723l.467-2.8,11.62,4.648ZM89,87.481H43.563V84.276H89v3.205Zm1.414-61.84A1.414,1.414,0,0,0,89,27.055V81.448H43.563V27.055a1.414,1.414,0,1,0-2.828,0v8.47L29.591,31.067l2.566-15.4a6.11,6.11,0,0,1,4.666-4.963L50.534,7.543l6.109,9.775a2.923,2.923,0,0,0,4.3.733l.9-.723V28.564a2.926,2.926,0,0,0,2.922,2.922H67.79a2.926,2.926,0,0,0,2.922-2.922V17.328l.9.723a2.922,2.922,0,0,0,4.3-.733l6.109-9.774,13.711,3.164a6.109,6.109,0,0,1,4.666,4.963l2.566,15.4L91.828,35.525v-8.47A1.413,1.413,0,0,0,90.415,25.641Zm1.414,15.917V38.571l11.62-4.648.467,2.8Z" transform="translate(351.813 2202.267)" fill="#809"/>
    </g>
    <rect id="Rectangle_255" data-name="Rectangle 255" width="109" height="116" transform="translate(391 2189)" fill="none"/>
  </g>
</svg>
